<svg width="986" height="357" viewBox="0 0 986 357" fill="none" xmlns="http://www.w3.org/2000/svg">
<path d="M28.5 230.45C18.7 230.45 10.3 229.167 3.30003 226.6C0.500029 225.667 0.0333626 224.033 1.90003 221.7C2.83336 220.767 4.00003 219.95 5.40003 219.25C6.80003 218.783 8.3167 218.9 9.95003 219.6C15.55 221.933 22.9 223.1 32 223.1C54.1667 223.1 80.0667 215.75 109.7 201.05C129.3 191.25 147.733 179.233 165 165C182.5 150.767 197.433 135.133 209.8 118.1C222.167 101.067 230.567 83.6833 235 65.95C236.4 60.35 237.1 55.3333 237.1 50.9C237.1 37.1333 231.5 26.9833 220.3 20.45C209.333 13.6833 194.05 10.3 174.45 10.3C172.817 10.3 170.717 10.4166 168.15 10.65C165.817 10.65 162.9 10.7666 159.4 11C152.633 11.4666 145.517 12.5166 138.05 14.15C130.817 15.55 123.35 17.4166 115.65 19.75C100.25 24.4166 86.6 30.8333 74.7 39C62.8 46.9333 55.2167 56.0333 51.95 66.3C51.25 68.4 50.9 70.15 50.9 71.55C50.9 74.1166 51.7167 76.1 53.35 77.5C54.9834 78.9 57.4334 80.3 60.7 81.7C62.1 82.4 62.8 83.3333 62.8 84.5C62.8 85.9 62.3334 87.0666 61.4 88C58.6 91.2666 55.5667 92.2 52.3 90.8C51.6 90.5666 49.7334 89.8666 46.7 88.7C43.6667 87.3 41.3334 85.6666 39.7 83.8C37.6 81.2333 36.55 78.4333 36.55 75.4C36.55 74 37.1334 71.2 38.3 67C42.2667 54.8666 51.25 44.0166 65.25 34.45C74.5834 27.9166 84.85 22.3166 96.05 17.65C107.483 12.75 118.917 8.89996 130.35 6.09997C142.017 3.06663 152.867 1.31664 162.9 0.849975C166.867 0.616631 170.25 0.499959 173.05 0.499959C176.083 0.266629 178.417 0.149963 180.05 0.149963C229.75 0.149963 254.6 15.6666 254.6 46.7C254.6 49.2666 254.367 52.3 253.9 55.8C253.433 59.0666 252.733 62.6833 251.8 66.65C244.333 95.35 227.767 122.183 202.1 147.15C189.033 159.75 174.917 171.183 159.75 181.45C144.817 191.717 129.533 200.467 113.9 207.7C98.5 214.933 83.45 220.533 68.75 224.5C54.2834 228.467 40.8667 230.45 28.5 230.45ZM68.05 209.45C61.9834 208.283 57.6667 206.183 55.1 203.15C52.7667 200.117 51.6 195.683 51.6 189.85C51.6 188.683 51.7167 186.933 51.95 184.6C52.1834 182.267 52.5334 179.233 53 175.5C54.1667 167.333 57.2 157.767 62.1 146.8C67.2334 135.833 73.5334 124.283 81 112.15C88.4667 100.017 96.4 88.1166 104.8 76.45C113.433 64.55 121.95 53.9333 130.35 44.6C130.583 44.3666 130.583 44.0166 130.35 43.55C130.35 43.0833 130 42.7333 129.3 42.5L128.6 41.8C127.9 40.8666 127.783 40.1666 128.25 39.7L136.65 29.9C138.517 27.5666 140.033 25.7 141.2 24.3C142.6 22.6666 143.65 21.6166 144.35 21.15C145.517 19.9833 147.383 19.4 149.95 19.4C152.983 19.4 155.783 20.2166 158.35 21.85C161.15 23.4833 162.55 25.1166 162.55 26.75C162.55 27.9166 162.083 28.85 161.15 29.55C156.25 33.9833 150.767 39.5833 144.7 46.35C138.633 52.8833 131.983 60.8166 124.75 70.15C114.95 82.5166 105.85 95 97.45 107.6C89.05 120.2 82.05 131.867 76.45 142.6C71.0834 153.1 67.9334 161.617 67 168.15L65.6 177.25C64.9 180.75 64.55 184.017 64.55 187.05C64.55 191.95 66.8834 194.983 71.55 196.15C73.8834 196.383 75.05 198.017 75.05 201.05C75.05 203.383 74.35 205.483 72.95 207.35C71.55 209.217 69.9167 209.917 68.05 209.45Z" fill="#1AA73C"/>
<path d="M262.817 209.45C262.35 209.45 261.884 209.333 261.417 209.1C260.95 209.1 260.484 208.983 260.017 208.75C256.75 207.117 254.65 204.783 253.717 201.75C252.783 198.717 252.55 194.867 253.017 190.2C253.483 188.333 253.95 185.067 254.417 180.4C255.117 175.733 255.933 172 256.867 169.2L239.017 186.35L229.217 195.8C222.45 202.567 216.85 205.95 212.417 205.95C210.55 205.95 209.033 205.25 207.867 203.85C205.767 201.283 204.717 198.133 204.717 194.4C204.717 189.5 206 184.25 208.567 178.65C211.134 173.05 214.167 167.683 217.667 162.55C221.167 157.183 224.317 152.75 227.117 149.25C234.117 140.617 240.883 133.85 247.417 128.95C254.183 124.05 261.184 121.6 268.417 121.6C272.384 121.6 276.233 122.3 279.967 123.7C283.933 125.1 287.55 127.433 290.817 130.7L291.167 131.05C291.167 131.75 290.584 132.45 289.417 133.15C288.95 133.617 288.483 133.967 288.017 134.2C287.783 134.433 287.55 134.667 287.317 134.9C284.517 137.7 281.367 142.367 277.867 148.9C274.367 155.433 271.333 162.317 268.767 169.55C266.2 176.55 264.917 182.617 264.917 187.75C264.917 192.417 266.084 195.567 268.417 197.2C269.584 197.9 270.867 198.25 272.267 198.25C275.3 198.25 279.5 196.383 284.867 192.65C285.1 192.417 285.567 192.067 286.267 191.6C287.2 190.9 288.483 189.967 290.117 188.8C291.983 187.4 293.5 186.7 294.667 186.7C295.834 186.7 296.417 187.167 296.417 188.1C296.417 189.5 295.483 191.133 293.617 193C292.217 194.167 290.583 195.45 288.717 196.85C287.083 198.25 285.1 199.65 282.767 201.05C279.267 203.617 275.65 205.6 271.917 207C268.184 208.633 265.15 209.45 262.817 209.45ZM223.267 187.05C228.167 187.05 237.267 179.817 250.567 165.35C254.067 161.383 257.217 157.65 260.017 154.15C262.817 150.417 265.383 146.8 267.717 143.3C271.917 136.533 273.317 131.867 271.917 129.3C271.217 127.9 269.817 127.2 267.717 127.2C265.15 127.2 261.65 128.6 257.217 131.4C252.783 133.967 248.233 137.35 243.567 141.55C239.134 145.75 235.05 149.95 231.317 154.15C228.75 157.417 226.183 161.967 223.617 167.8C221.05 173.633 219.767 178.417 219.767 182.15C219.767 185.417 220.933 187.05 223.267 187.05Z" fill="#1AA73C"/>
<path d="M309.714 207.35C306.681 207.35 305.164 204.667 305.164 199.3C305.164 194.867 306.214 190.55 308.314 186.35C313.681 176.083 318.581 165.933 323.014 155.9C326.047 149.833 328.847 144 331.414 138.4C334.214 132.8 336.781 127.667 339.114 123C340.514 121.6 341.914 120.9 343.314 120.9C346.347 120.9 347.281 122.3 346.114 125.1C345.647 126.733 344.947 128.717 344.014 131.05C343.314 133.15 342.381 135.717 341.214 138.75C337.481 148.55 335.264 155.433 334.564 159.4C341.097 153.567 347.747 148.2 354.514 143.3C361.514 138.167 368.047 133.967 374.114 130.7C380.181 127.433 385.314 125.8 389.514 125.8C393.247 125.8 395.114 127.317 395.114 130.35C395.114 132.917 393.947 135.717 391.614 138.75C389.281 141.55 386.947 142.95 384.614 142.95C383.447 142.95 382.514 142.6 381.814 141.9C381.114 141.667 379.714 141.55 377.614 141.55C370.147 141.55 362.331 145.167 354.164 152.4C345.531 159.633 337.714 168.383 330.714 178.65C323.714 188.683 318.581 197.433 315.314 204.9C313.681 206.533 311.814 207.35 309.714 207.35Z" fill="#1AA73C"/>
<path d="M434.057 209.45C433.59 209.45 433.124 209.333 432.657 209.1C432.19 209.1 431.724 208.983 431.257 208.75C427.99 207.117 425.89 204.783 424.957 201.75C424.024 198.717 423.79 194.867 424.257 190.2C424.724 188.333 425.19 185.067 425.657 180.4C426.357 175.733 427.174 172 428.107 169.2L410.257 186.35L400.457 195.8C393.69 202.567 388.09 205.95 383.657 205.95C381.79 205.95 380.274 205.25 379.107 203.85C377.007 201.283 375.957 198.133 375.957 194.4C375.957 189.5 377.24 184.25 379.807 178.65C382.374 173.05 385.407 167.683 388.907 162.55C392.407 157.183 395.557 152.75 398.357 149.25C405.357 140.617 412.124 133.85 418.657 128.95C425.424 124.05 432.424 121.6 439.657 121.6C443.624 121.6 447.474 122.3 451.207 123.7C455.174 125.1 458.79 127.433 462.057 130.7L462.407 131.05C462.407 131.75 461.824 132.45 460.657 133.15C460.19 133.617 459.724 133.967 459.257 134.2C459.024 134.433 458.79 134.667 458.557 134.9C455.757 137.7 452.607 142.367 449.107 148.9C445.607 155.433 442.574 162.317 440.007 169.55C437.44 176.55 436.157 182.617 436.157 187.75C436.157 192.417 437.324 195.567 439.657 197.2C440.824 197.9 442.107 198.25 443.507 198.25C446.54 198.25 450.74 196.383 456.107 192.65C456.34 192.417 456.807 192.067 457.507 191.6C458.44 190.9 459.724 189.967 461.357 188.8C463.224 187.4 464.74 186.7 465.907 186.7C467.074 186.7 467.657 187.167 467.657 188.1C467.657 189.5 466.724 191.133 464.857 193C463.457 194.167 461.824 195.45 459.957 196.85C458.324 198.25 456.34 199.65 454.007 201.05C450.507 203.617 446.89 205.6 443.157 207C439.424 208.633 436.39 209.45 434.057 209.45ZM394.507 187.05C399.407 187.05 408.507 179.817 421.807 165.35C425.307 161.383 428.457 157.65 431.257 154.15C434.057 150.417 436.624 146.8 438.957 143.3C443.157 136.533 444.557 131.867 443.157 129.3C442.457 127.9 441.057 127.2 438.957 127.2C436.39 127.2 432.89 128.6 428.457 131.4C424.024 133.967 419.474 137.35 414.807 141.55C410.374 145.75 406.29 149.95 402.557 154.15C399.99 157.417 397.424 161.967 394.857 167.8C392.29 173.633 391.007 178.417 391.007 182.15C391.007 185.417 392.174 187.05 394.507 187.05Z" fill="#1AA73C"/>
<path d="M420.18 249.7C419.247 249.7 418.663 249 418.43 247.6C418.197 246.433 418.313 245.383 418.78 244.45C422.747 236.283 428.58 227.183 436.28 217.15C443.98 207.117 452.73 196.85 462.53 186.35C472.563 175.85 482.713 165.933 492.98 156.6L493.33 145.75C493.33 140.617 492.63 136.183 491.23 132.45C489.363 133.383 487.497 133.85 485.63 133.85C483.763 133.85 482.83 133.033 482.83 131.4C482.83 128.367 484.697 125.8 488.43 123.7C490.297 122.533 492.163 121.95 494.03 121.95C498.463 121.95 501.263 124.867 502.43 130.7C503.83 136.533 504.413 142.483 504.18 148.55L518.53 136.65C523.663 132.917 528.33 128.25 532.53 122.65C537.897 115.65 543.497 112.15 549.33 112.15C552.597 112.15 554.23 113.317 554.23 115.65C554.23 117.283 553.18 118.8 551.08 120.2C531.013 134.667 515.147 146.683 503.48 156.25C502.78 162.55 502.43 168.967 502.43 175.5C502.43 182.733 504.53 186.35 508.73 186.35C511.297 186.35 514.097 185.3 517.13 183.2C520.863 180.633 524.13 178.183 526.93 175.85C529.73 173.517 531.947 171.3 533.58 169.2C536.147 166.633 537.897 165.35 538.83 165.35C539.763 165.35 540.23 165.933 540.23 167.1C540.23 168.967 538.947 171.183 536.38 173.75C535.68 174.45 534.98 175.033 534.28 175.5C533.813 175.967 533.23 176.55 532.53 177.25C531.83 177.717 531.247 178.183 530.78 178.65C528.68 180.283 526.697 181.8 524.83 183.2C523.197 184.6 521.797 185.883 520.63 187.05C508.963 198.017 500.447 203.5 495.08 203.5C493.213 203.5 491.813 203.033 490.88 202.1C489.48 200.7 488.78 197.9 488.78 193.7C488.78 190.2 489.13 186.467 489.83 182.5C490.53 178.3 491.23 174.683 491.93 171.65C492.63 168.383 492.98 166.517 492.98 166.05C475.713 180.983 461.247 195.1 449.58 208.4C437.913 221.7 429.047 234.417 422.98 246.55C422.047 248.65 421.113 249.7 420.18 249.7Z" fill="#1AA73C"/>
<path d="M548.37 232.55C547.204 232.55 546.62 231.5 546.62 229.4C546.62 228.933 546.62 228.233 546.62 227.3C546.854 226.6 547.087 225.783 547.32 224.85L562.37 187.05L580.22 142.95C577.42 142.717 573.337 142.833 567.97 143.3C562.604 143.533 558.054 144 554.32 144.7C552.92 144.933 551.754 145.167 550.82 145.4C550.12 145.4 549.537 145.4 549.07 145.4C547.204 145.4 545.92 144.583 545.22 142.95C545.454 141.55 546.737 140.267 549.07 139.1C550.237 138.633 551.637 138.283 553.27 138.05C554.904 137.583 556.887 137.117 559.22 136.65C561.787 136.183 564.004 135.833 565.87 135.6C567.97 135.367 569.487 135.133 570.42 134.9C571.587 134.667 572.754 134.433 573.92 134.2C575.087 133.967 576.487 133.733 578.12 133.5C579.52 133.267 581.037 133.033 582.67 132.8C584.304 132.567 586.054 132.217 587.92 131.75C589.787 129.183 592.587 124.633 596.32 118.1C600.054 111.567 604.837 102.933 610.67 92.2C615.337 83.5666 619.07 76.8 621.87 71.9C624.904 66.7666 627.004 63.3833 628.17 61.75C630.27 58.95 632.72 57.55 635.52 57.55C636.92 57.55 637.62 58.1333 637.62 59.3C637.62 59.5333 637.037 61.05 635.87 63.85C634.47 66.1833 632.137 70.5 628.87 76.8C625.604 83.1 622.104 89.9833 618.37 97.45C614.637 104.917 611.254 111.917 608.22 118.45C605.187 124.983 603.087 129.767 601.92 132.8C603.087 132.567 604.37 132.45 605.77 132.45C607.404 132.45 609.387 132.45 611.72 132.45C614.287 132.45 616.62 132.567 618.72 132.8C621.054 132.8 623.037 132.917 624.67 133.15C627.937 133.85 629.57 134.783 629.57 135.95C629.57 136.417 628.52 137.233 626.42 138.4C625.254 138.867 623.037 139.333 619.77 139.8C616.504 140.267 612.187 140.733 606.82 141.2C605.42 141.2 603.904 141.317 602.27 141.55C600.637 141.55 598.887 141.667 597.02 141.9C590.02 153.333 580.454 172.35 568.32 198.95C563.887 207.817 560.504 214.7 558.17 219.6C555.837 224.5 554.437 227.417 553.97 228.35C551.87 231.15 550.004 232.55 548.37 232.55Z" fill="#1AA73C"/>
<path d="M606.522 224.85C606.289 224.85 606.056 224.85 605.822 224.85C605.356 225.083 604.889 225.2 604.422 225.2C601.856 225.2 600.572 223.917 600.572 221.35C600.572 219.717 601.272 217.383 602.672 214.35C603.839 211.55 605.239 208.633 606.872 205.6C608.506 202.8 609.556 200.933 610.022 200C612.589 195.567 614.572 191.95 615.972 189.15C617.606 186.35 618.656 184.25 619.122 182.85L627.522 162.9L623.672 160.45C622.506 159.75 621.572 159.05 620.872 158.35C620.406 157.65 620.056 157.183 619.822 156.95L619.122 155.55C619.122 154.15 620.872 152.983 624.372 152.05C625.772 151.117 629.272 149.95 634.872 148.55L647.122 123L653.422 107.25C662.756 83.9166 671.622 64.7833 680.022 49.85C688.656 34.6833 698.689 24.4166 710.122 19.05H710.472C711.406 19.05 712.689 19.5166 714.322 20.45C715.956 21.3833 717.006 22.55 717.472 23.95C717.706 24.8833 717.822 25.9333 717.822 27.1C718.056 28.0333 718.172 29.0833 718.172 30.25C718.172 35.15 717.006 41.2166 714.672 48.45C712.572 55.45 708.956 62.9166 703.822 70.85C699.156 77.85 693.206 85.55 685.972 93.95C678.972 102.117 670.689 110.983 661.122 120.55C656.689 128.483 652.489 136.533 648.522 144.7C654.822 142.833 662.172 140.033 670.572 136.3C674.306 135.133 678.272 133.733 682.472 132.1C686.672 130.467 691.106 128.483 695.772 126.15C696.939 125.683 698.222 125.1 699.622 124.4C701.022 123.7 702.422 123 703.822 122.3L715.722 117.05L719.572 116.7C720.739 116.7 720.972 117.167 720.272 118.1C719.572 119.5 716.889 121.717 712.222 124.75C707.556 127.783 702.772 130.583 697.872 133.15L678.272 141.9C673.839 143.767 670.339 145.283 667.772 146.45C665.206 147.617 663.456 148.433 662.522 148.9C660.889 151 659.372 153.1 657.972 155.2C656.806 157.067 655.756 158.933 654.822 160.8C655.989 165.933 662.289 172.933 673.722 181.8C678.389 185.533 681.656 188.217 683.522 189.85C685.389 191.483 686.089 192.067 685.622 191.6C689.122 194.167 691.106 196.267 691.572 197.9L691.922 199.3V199.65C691.922 200.817 690.872 200.817 688.772 199.65C686.672 199.183 683.872 198.017 680.372 196.15L667.422 189.5C662.056 186.7 657.739 184.367 654.472 182.5C651.439 180.633 648.639 178.767 646.072 176.9C643.506 175.033 640.239 172.7 636.272 169.9C631.139 181.333 626.589 191.483 622.622 200.35C622.389 201.05 622.156 201.517 621.922 201.75C621.922 202.217 621.922 202.567 621.922 202.8C621.922 203.5 622.622 204.083 624.022 204.55C625.422 204.783 626.239 205.25 626.472 205.95C626.706 206.883 626.822 207.583 626.822 208.05C627.056 208.75 627.172 209.217 627.172 209.45C627.172 213.417 624.956 216.8 620.522 219.6C616.322 222.4 611.656 224.15 606.522 224.85ZM662.872 106.2C663.572 106.667 665.322 105.617 668.122 103.05C670.922 100.25 674.072 96.75 677.572 92.55C681.306 88.1166 684.922 83.5666 688.422 78.9C692.156 74 695.072 69.6833 697.172 65.95C700.672 59.8833 703.589 54.05 705.922 48.45C708.256 42.6166 709.422 38.1833 709.422 35.15C709.422 32.35 708.372 30.95 706.272 30.95C703.706 30.95 700.439 33.2833 696.472 37.95C692.506 42.6166 688.539 48.3333 684.572 55.1C680.839 61.8666 677.572 68.2833 674.772 74.35C673.139 78.0833 671.389 82.2833 669.522 86.95C667.889 91.6166 666.489 95.8166 665.322 99.55C664.156 103.05 663.339 105.267 662.872 106.2Z" fill="#1AA73C"/>
<path d="M725.123 203.85C720.223 203.85 715.906 202.567 712.173 200C706.106 195.333 703.073 188.333 703.073 179C703.073 169.667 706.34 159.75 712.873 149.25C719.406 138.75 729.323 129.067 742.623 120.2C744.956 118.567 748.106 117.75 752.073 117.75C757.206 117.75 761.756 119.15 765.723 121.95C769.923 124.75 771.556 128.367 770.623 132.8C768.99 140.033 765.373 146.45 759.773 152.05C754.406 157.65 747.99 162.667 740.523 167.1C733.29 171.3 725.823 175.383 718.123 179.35C717.89 180.05 717.656 180.75 717.423 181.45C717.423 182.15 717.423 182.85 717.423 183.55C717.423 186.817 718.473 189.733 720.573 192.3C722.906 194.633 726.056 195.8 730.023 195.8C733.056 195.8 735.623 195.333 737.723 194.4C741.456 193 744.49 191.717 746.823 190.55C749.39 189.383 752.306 187.633 755.573 185.3C758.84 182.967 763.273 179.467 768.873 174.8C771.44 172.933 772.956 172 773.423 172C774.823 172 775.29 173.05 774.823 175.15C772.49 178.883 768.406 182.967 762.573 187.4C756.973 191.833 750.673 195.683 743.673 198.95C736.906 202.217 730.723 203.85 725.123 203.85ZM720.223 169.9C722.09 169.9 725.94 168.033 731.773 164.3C737.606 160.567 743.09 156.483 748.223 152.05C757.09 143.883 761.523 137.583 761.523 133.15C761.523 131.983 761.173 130.933 760.473 130C759.773 128.833 758.723 128.25 757.323 128.25C752.89 128.25 745.423 133.5 734.923 144C727.69 151 722.79 159.633 720.223 169.9Z" fill="#1AA73C"/>
<path d="M776.308 205.6C772.108 205.6 770.008 203.967 770.008 200.7C770.008 198.6 770.708 195.917 772.108 192.65C773.741 189.383 775.374 186.233 777.008 183.2C781.441 175.267 785.524 167.567 789.258 160.1C792.991 152.633 796.608 144.7 800.108 136.3C801.741 132.567 804.191 130.7 807.458 130.7C810.958 130.7 812.008 132.8 810.608 137C809.208 140.5 807.808 143.65 806.408 146.45C799.875 159.75 796.608 168.733 796.608 173.4C796.608 175.5 797.308 176.783 798.708 177.25C801.974 174.683 804.425 172.817 806.058 171.65C807.691 170.25 808.625 169.433 808.858 169.2C812.125 166.633 815.741 163.717 819.708 160.45C823.908 156.95 828.458 152.983 833.358 148.55C841.058 141.55 847.475 138.05 852.608 138.05C858.908 138.05 861.591 143.767 860.658 155.2C860.425 159.633 860.425 163.95 860.658 168.15C860.891 169.083 861.008 170.483 861.008 172.35C861.008 173.983 861.008 175.967 861.008 178.3C861.008 180.633 862.408 181.8 865.208 181.8C868.474 181.8 871.508 180.867 874.308 179L882.008 173.75L889.708 168.85C890.174 168.617 890.991 168.5 892.158 168.5C893.558 168.5 893.558 169.55 892.158 171.65C877.458 189.85 865.324 198.95 855.758 198.95C853.891 198.95 852.025 198.6 850.158 197.9C848.525 197.2 847.358 195.217 846.658 191.95C845.958 188.45 845.491 184.717 845.258 180.75C845.258 176.783 845.258 173.75 845.258 171.65L845.608 160.1C845.608 155.2 844.325 152.75 841.758 152.75C835.691 152.75 820.758 165.233 796.958 190.2C795.091 192.533 792.174 195.683 788.208 199.65C784.241 203.617 780.275 205.6 776.308 205.6Z" fill="#1AA73C"/>
<path d="M896.32 232.55C895.153 232.55 894.57 231.5 894.57 229.4C894.57 228.933 894.57 228.233 894.57 227.3C894.803 226.6 895.036 225.783 895.27 224.85L910.32 187.05L928.17 142.95C925.37 142.717 921.286 142.833 915.92 143.3C910.553 143.533 906.003 144 902.27 144.7C900.87 144.933 899.703 145.167 898.77 145.4C898.07 145.4 897.486 145.4 897.02 145.4C895.153 145.4 893.87 144.583 893.17 142.95C893.403 141.55 894.686 140.267 897.02 139.1C898.186 138.633 899.586 138.283 901.22 138.05C902.853 137.583 904.836 137.117 907.17 136.65C909.736 136.183 911.953 135.833 913.82 135.6C915.92 135.367 917.436 135.133 918.37 134.9C919.536 134.667 920.703 134.433 921.87 134.2C923.036 133.967 924.436 133.733 926.07 133.5C927.47 133.267 928.986 133.033 930.62 132.8C932.253 132.567 934.003 132.217 935.87 131.75C937.736 129.183 940.536 124.633 944.27 118.1C948.003 111.567 952.786 102.933 958.62 92.2C963.286 83.5666 967.02 76.8 969.82 71.9C972.853 66.7666 974.953 63.3833 976.12 61.75C978.22 58.95 980.67 57.55 983.47 57.55C984.87 57.55 985.57 58.1333 985.57 59.3C985.57 59.5333 984.986 61.05 983.82 63.85C982.42 66.1833 980.086 70.5 976.82 76.8C973.553 83.1 970.053 89.9833 966.32 97.45C962.586 104.917 959.203 111.917 956.17 118.45C953.136 124.983 951.036 129.767 949.87 132.8C951.036 132.567 952.32 132.45 953.72 132.45C955.353 132.45 957.336 132.45 959.67 132.45C962.236 132.45 964.57 132.567 966.67 132.8C969.003 132.8 970.986 132.917 972.62 133.15C975.886 133.85 977.52 134.783 977.52 135.95C977.52 136.417 976.47 137.233 974.37 138.4C973.203 138.867 970.986 139.333 967.72 139.8C964.453 140.267 960.136 140.733 954.77 141.2C953.37 141.2 951.853 141.317 950.22 141.55C948.586 141.55 946.836 141.667 944.97 141.9C937.97 153.333 928.403 172.35 916.27 198.95C911.836 207.817 908.453 214.7 906.12 219.6C903.786 224.5 902.386 227.417 901.92 228.35C899.82 231.15 897.953 232.55 896.32 232.55Z" fill="#1AA73C"/>
<path d="M376.32 353.4H384.72C385.92 353.4 386.52 352.8 386.52 351.6V278.4C386.52 277.2 385.92 276.6 384.72 276.6H376.32C375.12 276.6 374.52 276 374.52 274.8C374.52 273.6 375.12 273 376.32 273H389.52C390.96 273 391.96 273.6 392.52 274.8L426.12 349.2C426.92 350.8 427.72 350.8 428.52 349.2L462.12 274.8C462.68 273.6 463.68 273 465.12 273H478.32C479.52 273 480.12 273.6 480.12 274.8C480.12 276 479.52 276.6 478.32 276.6H469.92C468.72 276.6 468.12 277.2 468.12 278.4V351.6C468.12 352.8 468.72 353.4 469.92 353.4H478.32C479.52 353.4 480.12 354 480.12 355.2C480.12 356.4 479.52 357 478.32 357H455.52C454.32 357 453.72 356.4 453.72 355.2C453.72 354 454.32 353.4 455.52 353.4H462.72C463.92 353.4 464.52 352.8 464.52 351.6V281.4C464.52 280.6 464.36 280.28 464.04 280.44C463.88 280.44 463.72 280.56 463.56 280.8L429.96 355.2C429.32 356.4 428.44 357 427.32 357C426.2 357 425.32 356.4 424.68 355.2L391.08 280.8C390.76 280.32 390.52 280.2 390.36 280.44C390.2 280.68 390.12 281 390.12 281.4V351.6C390.12 352.8 390.72 353.4 391.92 353.4H399.12C400.32 353.4 400.92 354 400.92 355.2C400.92 356.4 400.32 357 399.12 357H376.32C375.12 357 374.52 356.4 374.52 355.2C374.52 354 375.12 353.4 376.32 353.4Z" fill="#1AA73C"/>
<path d="M529.762 279.6C529.602 279.12 529.362 278.88 529.042 278.88C528.722 278.88 528.482 279.12 528.322 279.6L511.882 322.32C511.242 323.52 511.682 324.12 513.202 324.12H544.882C546.322 324.12 546.762 323.52 546.202 322.32L529.762 279.6ZM548.962 329.4C548.482 328.28 547.522 327.72 546.082 327.72H512.002C510.562 327.72 509.602 328.28 509.122 329.4L500.602 351.6C499.962 352.8 500.362 353.4 501.802 353.4H509.002C510.202 353.4 510.802 354 510.802 355.2C510.802 356.4 510.202 357 509.002 357H486.202C485.002 357 484.402 356.4 484.402 355.2C484.402 354 485.002 353.4 486.202 353.4H494.002C494.962 353.4 495.762 352.8 496.402 351.6L526.402 273.6C526.722 272.4 527.602 271.8 529.042 271.8C530.482 271.8 531.362 272.4 531.682 273.6L561.682 351.6C562.242 352.8 563.042 353.4 564.082 353.4H571.882C573.082 353.4 573.682 354 573.682 355.2C573.682 356.4 573.082 357 571.882 357H549.082C547.882 357 547.282 356.4 547.282 355.2C547.282 354 547.882 353.4 549.082 353.4H556.282C557.642 353.4 558.042 352.8 557.482 351.6L548.962 329.4Z" fill="#1AA73C"/>
<path d="M595.358 323.4C594.158 323.4 593.558 324 593.558 325.2V351.6C593.558 352.8 594.158 353.4 595.358 353.4H604.958C606.158 353.4 606.758 354 606.758 355.2C606.758 356.4 606.158 357 604.958 357H579.758C578.558 357 577.958 356.4 577.958 355.2C577.958 354 578.558 353.4 579.758 353.4H588.158C589.358 353.4 589.958 352.8 589.958 351.6V278.4C589.958 277.2 589.358 276.6 588.158 276.6H579.758C578.558 276.6 577.958 276 577.958 274.8C577.958 273.6 578.558 273 579.758 273H619.958C627.878 273 633.838 275.16 637.838 279.48C641.918 283.72 643.958 289.96 643.958 298.2C643.958 306.44 641.918 312.72 637.838 317.04C633.838 321.28 627.878 323.4 619.958 323.4H595.358ZM619.958 319.8C633.558 319.8 640.358 312.6 640.358 298.2C640.358 283.8 633.558 276.6 619.958 276.6H595.358C594.158 276.6 593.558 277.2 593.558 278.4V318C593.558 319.2 594.158 319.8 595.358 319.8H619.958Z" fill="#1AA73C"/>
</svg>
